<svg xmlns="http://www.w3.org/2000/svg" width="98" height="15" viewBox="0 0 98 15"><defs><clipPath id="dm89a"><path fill="#fff" d="M28.5-.003a7.5 7.5 0 1 1 0 15 7.5 7.5 0 0 1 0-15z"/></clipPath></defs><g><g opacity=".5"><path fill="#fff" d="M5.7 2.472a5.025 5.025 0 1 1 0 10.05 5.025 5.025 0 0 1 0-10.05z"/><path fill="#fff" d="M5.7 2.472a5.025 5.025 0 1 1 0 10.05 5.025 5.025 0 0 1 0-10.05z"/></g><g><path fill="#fff" d="M28.5-.003a7.5 7.5 0 1 1 0 15 7.5 7.5 0 0 1 0-15z"/><path fill="none" stroke="#d3c1ad" stroke-linecap="round" stroke-linejoin="round" stroke-miterlimit="20" stroke-width="4" d="M28.5-.003a7.5 7.5 0 1 1 0 15 7.5 7.5 0 0 1 0-15z" clip-path="url(&quot;#dm89a&quot;)"/></g><g opacity=".5"><path fill="#fff" d="M51.5 2.472a5.025 5.025 0 1 1 0 10.05 5.025 5.025 0 0 1 0-10.05z"/><path fill="#fff" d="M51.5 2.472a5.025 5.025 0 1 1 0 10.05 5.025 5.025 0 0 1 0-10.05z"/></g><g opacity=".5"><path fill="#fff" d="M71.9 2.472a5.025 5.025 0 1 1 0 10.05 5.025 5.025 0 0 1 0-10.05z"/><path fill="#fff" d="M71.9 2.472a5.025 5.025 0 1 1 0 10.05 5.025 5.025 0 0 1 0-10.05z"/></g><g opacity=".5"><path fill="#fff" d="M92.3 2.472a5.025 5.025 0 1 1 0 10.05 5.025 5.025 0 0 1 0-10.05z"/><path fill="#fff" d="M92.3 2.472a5.025 5.025 0 1 1 0 10.05 5.025 5.025 0 0 1 0-10.05z"/></g></g></svg>